<svg height="180pt" preserveAspectRatio="xMidYMid meet" viewBox="0 0 180 180" width="180pt" xmlns="http://www.w3.org/2000/svg"><g transform="matrix(.1 0 0 -.1 0 180)"><path d="m744 1645c-274-59-489-259-576-535-20-65-23-95-22-215 0-124 4-149 27-220 44-130 99-219 197-317 75-74 102-93 191-136 124-60 216-82 341-82 216 0 399 80 549 238 88 93 131 162 173 279 29 84 31 95 31 243-1 144-3 161-28 235-42 121-99 209-197 307-75 74-102 93-191 137-63 30-134 56-181 65-93 19-230 19-314 1zm-187-292c42-3 80 0 93 7 42 22 88-21 59-56-10-12-24-14-61-9l-48 7v-30c0-17 6-32 15-36 8-3 15-14 15-24 0-19 1-19 42 1 80 40 217 31 283-19 16-12 17-18 7-32-6-9-21-34-32-55l-21-38-33 20c-47 29-122 28-166-2-61-40-75-77-79-209l-3-118h36 36v-65-66l-132 3-133 3-3 63-3 62h36 35v236c0 227 1 236 20 241 14 4 20 14 20 35v30l-54-6c-48-6-56-5-65 13-14 26-14 27 5 46 11 11 24 14 38 9 12-4 53-9 93-11zm757-118c112-29 193-113 217-224 28-130-43-269-166-327-65-31-170-33-232-4l-43 19v-104-105h35 35v-60-60h-140-140v60 60h34 35l3 268c4 300 6 307 80 389 45 48 95 78 155 92 55 13 63 13 127-4zm-684-802c0-30-34-63-65-63-30 0-65 32-65 59 0 10 14 49 32 86l31 68 33-64c18-35 33-74 34-86z"/><path d="m468 683c7-3 16-2 19 1 4 3-2 6-13 5-11 0-14-3-6-6z"/><path d="m1166 1088c-103-61-100-218 4-277 104-58 230 17 230 137 0 92-55 153-144 159-40 3-60-1-90-19z"/></g></svg>